<svg width="72" height="19" fill="none" xmlns="http://www.w3.org/2000/svg"><path d="M10.592 4.368V1.2H.56V18h3.312v-6.48H10.4V8.352H3.872V4.368h6.72zM20.781 6v6.48c0 2.088-1.128 2.976-2.64 2.976-1.392 0-2.376-.84-2.376-2.472V6H12.67v7.368c0 3.192 1.992 4.968 4.536 4.968 1.608 0 2.856-.6 3.576-1.68V18h3.096V6h-3.096zm12.604-.336c-1.608 0-2.856.6-3.576 1.68V6h-3.096v12h3.096v-6.48c0-2.088 1.128-2.976 2.64-2.976 1.392 0 2.376.84 2.376 2.472V18h3.096v-7.368c0-3.192-1.992-4.968-4.536-4.968zM42.1 4.56c1.056 0 1.92-.864 1.92-1.896S43.156.744 42.1.744c-1.032 0-1.896.888-1.896 1.92S41.068 4.56 42.1 4.56zM40.564 18h3.096V6h-3.096v12zm9.026-9.936V6h-3.096v12h3.096v-5.736c0-2.52 2.04-3.24 3.648-3.048V5.76c-1.512 0-3.024.672-3.648 2.304zm10.726 10.272c3.527 0 6.36-2.76 6.36-6.336 0-3.576-2.833-6.336-6.36-6.336-3.529 0-6.337 2.76-6.337 6.336 0 3.576 2.809 6.336 6.337 6.336zm0-3.024c-1.825 0-3.24-1.368-3.24-3.312 0-1.944 1.416-3.312 3.24-3.312 1.847 0 3.264 1.368 3.264 3.312 0 1.944-1.416 3.312-3.264 3.312zm9.377 3c1.128 0 2.04-.912 2.04-2.04 0-1.128-.912-2.04-2.04-2.04-1.128 0-2.04.912-2.04 2.04 0 1.128.912 2.04 2.04 2.04z" fill="#000"/></svg>